<?xml version="1.0" encoding="UTF-8" standalone="no"?>
<svg
   xmlns:dc="http://purl.org/dc/elements/1.1/"
   xmlns:cc="http://creativecommons.org/ns#"
   xmlns:rdf="http://www.w3.org/1999/02/22-rdf-syntax-ns#"
   xmlns:svg="http://www.w3.org/2000/svg"
   xmlns="http://www.w3.org/2000/svg"
   xmlns:sodipodi="http://sodipodi.sourceforge.net/DTD/sodipodi-0.dtd"
   xmlns:inkscape="http://www.inkscape.org/namespaces/inkscape"
   height="24"
   width="24"
   viewBox="-35.20005 -41.33325 6.101342 7.439985"
   version="1.1"
   id="svg138"
   sodipodi:docname="youtube.svg"
   inkscape:version="1.0.2 (e86c870879, 2021-01-15)">
  <metadata
     id="metadata144">
    <rdf:RDF>
      <cc:Work
         rdf:about="">
        <dc:format>image/svg+xml</dc:format>
        <dc:type
           rdf:resource="http://purl.org/dc/dcmitype/StillImage" />
        <dc:title></dc:title>
      </cc:Work>
    </rdf:RDF>
  </metadata>
  <defs
     id="defs142" />
  <sodipodi:namedview
     pagecolor="#ffffff"
     bordercolor="#666666"
     borderopacity="1"
     objecttolerance="10"
     gridtolerance="10"
     guidetolerance="10"
     inkscape:pageopacity="0"
     inkscape:pageshadow="2"
     inkscape:window-width="1920"
     inkscape:window-height="1048"
     id="namedview140"
     showgrid="false"
     inkscape:zoom="12.105668"
     inkscape:cx="13.447438"
     inkscape:cy="20.686522"
     inkscape:window-x="0"
     inkscape:window-y="0"
     inkscape:window-maximized="1"
     inkscape:current-layer="svg138"
     inkscape:document-rotation="0" />
  <path
     d="m -28.841931,-39.246135 c -0.0784,-0.295332 -0.30951,-0.527919 -0.60295,-0.606852 -0.53185,-0.143452 -2.66453,-0.143452 -2.66453,-0.143452 0,0 -2.13266,0 -2.6645,0.143452 -0.29344,0.07893 -0.52455,0.31152 -0.60296,0.606852 -0.14252,0.535329 -0.14252,1.652196 -0.14252,1.652196 0,0 0,1.116867 0.14252,1.652197 0.0784,0.295332 0.30952,0.527889 0.60296,0.606852 0.53184,0.143423 2.6645,0.143423 2.6645,0.143423 0,0 2.13268,0 2.66453,-0.143423 0.29344,-0.07896 0.52451,-0.311549 0.60295,-0.606823 0.14253,-0.535388 0.14253,-1.652226 0.14253,-1.652226 0,0 0,-1.116867 -0.14253,-1.652196"
     fill="#282828"
     id="path134"
     style="stroke-width:0.999999" />
  <path
     d="m -32.76369,-36.579923 1.78251,-1.013987 -1.78251,-1.014073 z"
     fill="#ffffff"
     id="path136"
     style="stroke-width:0.999999" />
</svg>
